<svg id="eb2pDNlx0HG1" xmlns="http://www.w3.org/2000/svg" xmlns:xlink="http://www.w3.org/1999/xlink" viewBox="0 0 625 508" shape-rendering="geometricPrecision" text-rendering="geometricPrecision"><rect id="eb2pDNlx0HG2" width="148.496" height="39.1238" rx="19.5619" ry="19.5619" transform="matrix(.866025-.5 0.5 0.866025 87.418553 253.288403)" fill="#7a69e7"/><rect width="148.496" height="39.1238" rx="19.5619" ry="19.5619" transform="matrix(-.866025-.5 0.5-.866025 518.019541 287.170306)" fill="#7a69e7"/><rect width="193" height="168" rx="0" ry="0" transform="matrix(1 0 0-1 216.418179 213.040441)" fill="#fff"/><ellipse rx="112.865" ry="168.651" transform="translate(312.354179 242.342441)" fill="#263092"/><ellipse rx="96.5" ry="84" transform="translate(312.918179 129.040441)" fill="#7a69e7"/><path d="M315.492,346.677L366.5,313.983L385,230l-69.508,39.983L250,230l15.5,83.983l49.992,32.694Zm.016-16.194L250,230h65.508h69.492L315.508,330.483Z" transform="translate(-4.581821 12.040441)" clip-rule="evenodd" fill="#fffdfd" fill-rule="evenodd"/><path d="M315.492,346.677l.016-16.194m-.016,16.194L366.5,313.983L385,230M315.492,346.677L265.5,313.983L250,230m135,0h-69.492-65.508m135,0L315.508,330.483M385,230l-69.508,39.983L250,230m0,0l65.508,100.483" transform="translate(-4.581821 12.040441)" fill="none" stroke="#fff" stroke-width="5"/><g transform="translate(-4.581821 12.040441)"><rect width="17" height="58" rx="0" ry="0" transform="translate(406 71)" fill="#665696"/><rect width="17" height="58" rx="0" ry="0" transform="translate(406 71)" fill-opacity="0.2"/><rect width="16" height="57" rx="0" ry="0" transform="translate(406.5 71.5)" fill="none" stroke="#000"/></g><ellipse rx="77" ry="62" transform="translate(312.418179 129.040441)" fill="#d9d9d9"/><ellipse rx="22.5" ry="21" transform="translate(279.918179 120.040441)" fill="#263092"/><ellipse rx="22.5" ry="21" transform="translate(343.918179 120.040441)" fill="#263092"/><ellipse rx="28" ry="27.6923" transform="translate(278.418179 126.732441)" fill="#7a69e7"/><rect width="56" height="32.3077" rx="0" ry="0" transform="translate(250.418179 126.732441)" fill="#d9d9d9"/><ellipse rx="22.4737" ry="20.3846" transform="translate(278.050179 127.117441)" fill="#d9d9d9"/><ellipse rx="28" ry="26.7692" transform="translate(343.418179 125.809441)" fill="#7a69e7"/><rect width="56" height="31.2308" rx="0" ry="0" transform="translate(315.418179 125.809441)" fill="#d9d9d9"/><ellipse rx="22.4737" ry="19.7051" transform="translate(343.050179 126.181441)" fill="#d9d9d9"/><g transform="translate(-4.581821 12.040441)"><rect width="17" height="58" rx="0" ry="0" transform="translate(213 71)" fill="#665696"/><rect width="17" height="58" rx="0" ry="0" transform="translate(213 71)" fill-opacity="0.2"/><rect width="16" height="57" rx="0" ry="0" transform="translate(213.5 71.5)" fill="none" stroke="#000"/></g><path d="M413,0h8v71h-8v-35.5-35.5Z" transform="translate(-4.581821 12.040441)" fill="#1d0202"/><path d="M213,0h8v71h-8v-35.5-35.5Z" transform="translate(-4.581821 12.040441)" fill="#1d0202"/><g id="eb2pDNlx0HG28" transform="matrix(1.407046 0 0 1-124.040204 0.000001)"><ellipse rx="32.5" ry="10.115014" transform="translate(310.550179 429.655046)" fill="#6d80a5" stroke-width="0"/><ellipse rx="21.44715" ry="10.115014" transform="matrix(1 0 0 0.533455 310.550179 429.655046)" fill="#fff" stroke-width="0"/></g><g id="eb2pDNlx0HG31" transform="matrix(2.13217 0 0 1-349.227579 28.717033)"><ellipse rx="32.5" ry="10.115014" transform="translate(310.550179 429.655046)" fill="#6d80a5" stroke-width="0"/><ellipse rx="21.44715" ry="10.115014" transform="matrix(1.169936 0 0 0.533455 310.550179 429.655046)" fill="#fff" stroke-width="0"/></g><g id="eb2pDNlx0HG34" transform="matrix(3.319015 0 0 1-717.802497 54.550299)"><ellipse rx="32.5" ry="10.115014" transform="translate(310.550179 429.655046)" fill="#6d80a5" stroke-width="0"/><ellipse rx="21.44715" ry="10.115014" transform="matrix(1.243267 0 0 0.533455 310.550179 429.655046)" fill="#fff" stroke-width="0"/></g></svg>
